<svg xmlns="http://www.w3.org/2000/svg" width="24" height="24" viewBox="0 0 24 24">
    <g fill="none" fill-rule="evenodd">
        <g fill="#41807A">
            <path d="M18.678 19.908c.21 0 .398-.047.562-.14.164-.094.292-.225.383-.392.09-.167.136-.353.136-.558 0-.14-.025-.278-.075-.413-.05-.134-.127-.252-.233-.351l-3.755-3.77.078-.107c.216-.31.406-.638.568-.984l.095-.21c.334-.78.5-1.615.5-2.505 0-.891-.166-1.728-.5-2.51-.334-.782-.799-1.47-1.394-2.065-.594-.595-1.283-1.06-2.065-1.398-.782-.337-1.619-.505-2.51-.505-.89 0-1.725.168-2.504.505-.78.337-1.468.803-2.066 1.398-.597.595-1.063 1.282-1.397 2.06C4.167 8.744 4 9.582 4 10.479c0 .89.167 1.725.501 2.504.334.78.798 1.468 1.393 2.066.595.598 1.283 1.063 2.065 1.397.783.334 1.62.501 2.51.501.89 0 1.727-.167 2.509-.5.356-.152.692-.332 1.009-.538l.134-.091 3.783 3.775c.085.089.178.158.282.208l.079.033c.134.05.272.075.413.075zm-8.21-4.535c-.667 0-1.299-.127-1.893-.382-.595-.255-1.117-.608-1.565-1.06-.448-.45-.8-.97-1.054-1.56-.255-.588-.383-1.22-.383-1.893 0-.668.128-1.298.383-1.89.254-.592.606-1.113 1.054-1.565.448-.45.97-.805 1.565-1.063.594-.258 1.226-.387 1.894-.387.674 0 1.306.13 1.898.387.592.258 1.112.612 1.56 1.063.448.452.8.973 1.055 1.565.255.592.382 1.222.382 1.89 0 .673-.127 1.305-.382 1.894-.255.588-.607 1.108-1.055 1.56-.448.45-.968.804-1.56 1.059-.592.255-1.224.382-1.898.382z" transform="translate(-910 -69) translate(0 41) translate(563 16) translate(347 12)"/>
        </g>
    </g>
</svg>
